<svg width="42" height="69" viewBox="0 0 42 69" fill="none" xmlns="http://www.w3.org/2000/svg">
<path d="M40.9035 9.08276C40.4069 8.71034 39.7448 8.65517 38.9173 8.90345C35.8276 9.81379 33.6207 12.531 32.2276 14.5034C30.5397 16.8838 29.4902 19.6571 29.1793 22.5586L27.4828 35.9241C27.3724 36.9586 28.1173 37.8138 29.2483 37.9655C30.7242 38.131 31.8276 39.3586 31.869 40.8897C31.9104 43.0552 30.1448 43.7172 29.2759 43.9103C28.6 42.6414 26.6552 39.0552 25.3862 37.469C23.8276 35.5103 22.9586 33 22.9586 30.3655V27.869C22.9586 23.3172 23.7724 18.5172 25.4552 13.1931C25.7724 12.2 25.9242 11.2207 25.9242 10.2828C25.9242 6.04827 22.8207 2.48965 21.4828 1.16551C21.4219 1.09735 21.3476 1.04254 21.2645 1.00456C21.1814 0.966569 21.0914 0.946231 21 0.944824C20.8207 0.97241 20.6414 1.01379 20.5035 1.15172C19.1793 2.50345 16.0897 6.07586 16.0897 10.269C16.0897 11.2483 16.2414 12.2276 16.5449 13.1793C18.2276 18.5034 19.0552 23.2897 19.0552 27.8552V30.3517C19.0552 32.9724 18.1862 35.4828 16.6138 37.4552C15.3724 39.0276 13.4552 42.531 12.7655 43.8414C12.0483 43.6069 10.9724 43.0965 10.5311 42.3103C10.0483 41.4552 10.0207 40.4207 10.4621 39.4828C10.8483 38.6552 11.6897 38.1034 12.8759 37.9241C13.8966 37.7586 14.6138 36.8207 14.5035 35.7724L12.8345 22.531C12.5173 19.6345 11.469 16.8621 9.78623 14.4759C8.09337 12.0905 5.81917 10.1771 3.17933 8.91724C2.88968 8.77931 2.0483 8.62758 1.34485 9.02758C0.972437 9.23448 0.503472 9.68965 0.393127 10.669V53.9655C0.393127 55.0414 1.26209 55.9103 2.33795 55.9103H11.8552L11.9793 56.3103C14.1035 63.069 19.4828 67.8276 19.7173 68.0207C20.0759 68.3379 20.5311 68.5172 21 68.5172C21.469 68.5172 21.938 68.3379 22.2828 68.0345C22.5173 67.8276 27.9104 63.0276 30.0345 56.3103L30.1586 55.9103H39.6621C40.7379 55.9103 41.6069 55.0414 41.6069 53.9655V10.6828C41.6069 9.9931 41.3586 9.41379 40.9035 9.08276ZM40.2276 53.9793C40.2276 54.2828 39.9655 54.5448 39.6621 54.5448H29.6483C29.3448 54.5448 29.0828 54.7379 28.9862 55.0276L28.7104 55.9103C26.7104 62.269 21.5793 66.8345 21.3724 67.0138C21.1931 67.1793 20.8483 67.1931 20.6276 67C20.4069 66.8069 15.3035 62.3103 13.3035 55.9103L13.0276 55.0276C12.9826 54.8874 12.8942 54.7651 12.7753 54.6783C12.6563 54.5915 12.5128 54.5448 12.3655 54.5448H2.33795C2.03451 54.5448 1.77244 54.2828 1.77244 53.9793V10.7655C1.80002 10.5034 1.88278 10.3379 2.00692 10.2552C2.11726 10.1862 2.28278 10.1586 2.40692 10.1586C2.50347 10.1586 2.58623 10.1724 2.60002 10.1724C5.00002 11.3172 7.09657 13.0965 8.66899 15.2897C10.2162 17.4808 11.1798 20.0299 11.469 22.6965L13.138 35.9379C13.1655 36.2414 12.9586 36.5172 12.6552 36.5586C11.0138 36.8069 9.78623 37.6345 9.20692 38.8897C8.57244 40.2414 8.62761 41.731 9.33106 42.9862C10.3242 44.7379 12.8621 45.3034 12.9724 45.3172C13.2759 45.3724 13.5793 45.2345 13.7311 44.9586C13.7586 44.9034 16.269 40.1034 17.7035 38.2965C19.469 36.0897 20.4483 33.2621 20.4483 30.3379V27.8414C20.4483 23.1379 19.6069 18.2 17.8828 12.7517C17.6207 11.9241 17.4828 11.0828 17.4828 10.2552C17.4828 7.01379 19.6621 4.10345 21.0138 2.62758C22.2552 3.97931 24.5586 6.95862 24.5586 10.2552C24.5586 11.0552 24.4207 11.8965 24.1449 12.7517C22.4207 18.2 21.5931 23.1379 21.5931 27.8414V30.3379C21.5931 33.2759 22.5586 36.1034 24.3242 38.2965C25.7724 40.1034 28.2828 44.9034 28.3104 44.9586C28.4345 45.2069 28.6966 45.3448 28.9862 45.331C30.4897 45.1931 33.3311 44.0759 33.2621 40.8345C33.2069 38.6 31.5931 36.8069 29.4276 36.5724C29.2897 36.5586 28.8207 36.4621 28.8621 36.0621L30.5586 22.6965C30.8483 20.0069 31.8138 17.4414 33.3586 15.2759C34.6276 13.4828 36.6276 10.9862 39.3035 10.2C39.7311 10.0759 39.9931 10.1034 40.0759 10.1724C40.1586 10.2414 40.2276 10.4345 40.2276 10.669V53.9793Z" fill="#50AB09"/>
<path d="M26.1311 55.2345L15.938 55.1517C15.7173 55.1517 15.5104 55.262 15.3724 55.4414C15.2483 55.6207 15.2069 55.8551 15.2897 56.0758C16.6276 59.7724 19.1242 62.8069 20.5035 64.2827C20.5688 64.3527 20.6478 64.4086 20.7356 64.4467C20.8234 64.4849 20.9181 64.5046 21.0138 64.5046C21.1096 64.5046 21.2043 64.4849 21.2921 64.4467C21.3799 64.4086 21.4589 64.3527 21.5242 64.2827C22.8897 62.8069 25.3724 59.8 26.7793 56.1724C26.8198 56.0689 26.8347 55.9572 26.8227 55.8467C26.8107 55.7362 26.7721 55.6303 26.7104 55.5379C26.6404 55.4496 26.5527 55.377 26.4529 55.3247C26.3531 55.2725 26.2435 55.2417 26.1311 55.2345ZM21 62.7931C19.8 61.4138 18.0897 59.1931 16.9587 56.5448L25.0966 56.6138C23.9104 59.2207 22.2 61.4276 21 62.7931ZM37.7862 42.131L35.5242 42.0896C35.2483 42.0896 34.9311 42.2827 34.8483 42.5862C34.2138 44.7517 32.4897 46.3517 30.338 46.7931C30.1587 46.8345 29.9931 46.931 29.8966 47.0965C29.8 47.2483 29.7587 47.4414 29.8 47.6207C30.0345 48.6965 30.1173 51.4827 30.0897 51.8965C30.0621 52.0758 30.0897 52.2551 30.1862 52.4069C30.3104 52.6 30.5311 52.7103 30.7656 52.7103H37.7173C38.0897 52.7103 38.4069 52.4069 38.4069 52.0207L38.4621 42.8207C38.4621 42.4482 38.1587 42.1448 37.7862 42.131ZM37.0276 51.331H31.469C31.469 50.3655 31.3587 48.9034 31.2483 47.9793C33.4414 47.331 35.1931 45.662 36.0069 43.4689L37.0828 43.4827L37.0276 51.331ZM26.5587 47.0276H26.1449C24.1724 47.0276 22.5035 48.4896 22.2828 50.4758V50.7103C22.2828 51.0276 22.2828 51.6207 22.269 51.8414C22.2413 51.9433 22.2374 52.0502 22.2576 52.1539C22.2778 52.2575 22.3216 52.3552 22.3857 52.4392C22.4497 52.5232 22.5322 52.5913 22.6267 52.6384C22.7213 52.6854 22.8254 52.71 22.9311 52.7103H26.9449C27.3035 52.7103 27.6069 52.4345 27.6345 52.0758C27.6621 51.7448 27.6759 51.4 27.6759 51.0689C27.6759 50.0069 27.538 48.8345 27.2483 47.5655C27.2065 47.4136 27.1168 47.2792 26.9926 47.1823C26.8684 47.0854 26.7162 47.0311 26.5587 47.0276ZM26.269 51.331H23.6483V50.5724C23.7862 49.4 24.7931 48.4758 25.9931 48.4069C26.1862 49.3724 26.2828 50.2551 26.2828 51.0689C26.2828 51.1655 26.2828 51.2483 26.269 51.331ZM19.7311 52.0345V50.4896C19.5104 48.531 17.8414 47.0551 15.9518 47.0551H15.938L15.5793 47.0138C15.4146 46.9954 15.2488 47.0368 15.1121 47.1305C14.9753 47.2242 14.8768 47.3639 14.8345 47.5241C14.5129 48.688 14.3459 49.8891 14.338 51.0965V51.3586C14.338 51.5793 14.338 51.7862 14.3242 51.9793C14.3104 52.1724 14.3656 52.3655 14.4897 52.5172C14.6138 52.6689 14.8069 52.7517 15 52.7517H19.0138C19.4138 52.7103 19.7173 52.4069 19.7311 52.0345ZM18.3518 51.331H15.7311V51.0689C15.7311 50.2138 15.8414 49.331 16.0345 48.4069C17.2345 48.4896 18.2138 49.4138 18.3518 50.5172V51.331ZM11.7449 46.862C9.53797 46.3655 7.80003 44.7379 7.23452 42.6414C7.19322 42.4993 7.10852 42.3737 6.99226 42.2822C6.87601 42.1907 6.73404 42.1378 6.58624 42.131L4.32417 42.0758C4.13107 42.0896 3.96555 42.1448 3.82762 42.2689C3.68969 42.3931 3.62072 42.5724 3.62072 42.7655L3.56555 52.0345C3.56555 52.2138 3.63452 52.3931 3.77245 52.531C3.91038 52.6689 4.0759 52.7379 4.25521 52.7379H11.2069C11.5793 52.7379 11.8828 52.4345 11.8966 52.062C11.9242 50.9448 12.0345 48.6138 12.269 47.731C12.3242 47.5517 12.2966 47.3586 12.2 47.1931C12.0964 47.0285 11.9334 46.9099 11.7449 46.862ZM10.5173 51.331H4.93107L4.98624 43.4689L6.04831 43.4965C6.80693 45.6482 8.55865 47.3172 10.7793 48.0345C10.6276 49.0551 10.5587 50.4896 10.5173 51.331ZM16.8207 44.5862C18.2276 44.7931 19.5242 45.4689 20.5035 46.4896C20.6276 46.6276 20.8069 46.6965 21 46.6965C21.1931 46.6965 21.3724 46.6138 21.4966 46.4896C22.4759 45.4689 23.8 44.8069 25.1104 44.6689C25.3449 44.6414 25.538 44.5172 25.6483 44.3103C25.7587 44.1034 25.7587 43.8689 25.6483 43.662C24.3793 41.2207 22.7931 39.2758 21.5656 37.8414C21.5029 37.7673 21.4247 37.7078 21.3365 37.6673C21.2483 37.6268 21.1523 37.6062 21.0552 37.6069C20.8483 37.6345 20.669 37.6896 20.5311 37.8276C19.5931 38.8345 17.7862 40.931 16.3104 43.5655C16.2 43.7586 16.2 44.0069 16.2966 44.2C16.3931 44.3931 16.6 44.5586 16.8207 44.5862ZM21.0276 39.3448C21.9656 40.462 23.0276 41.8551 23.9656 43.4827C22.8897 43.7586 21.869 44.2965 21 45.0689C20.1288 44.3131 19.1024 43.7576 17.9931 43.4414C19.0552 41.7172 20.2 40.2827 21.0276 39.3448ZM38.1035 13.5517C37.9854 13.4951 37.8534 13.4741 37.7236 13.4912C37.5938 13.5084 37.4718 13.5629 37.3724 13.6482C36.4207 14.4345 35.5656 15.3448 34.8483 16.3517C33.4966 18.2689 32.6414 20.5172 32.3793 22.8758L30.8345 34.4482C30.7931 34.7517 30.9724 35.0551 31.2621 35.1793C32.9724 35.8827 34.3242 37.3862 34.7793 39.0965C34.8621 39.4 35.138 39.6069 35.4414 39.6069H37.7035C38.0897 39.6069 38.3931 39.3034 38.3931 38.9172L38.4897 14.1724C38.4928 14.0425 38.4579 13.9146 38.3893 13.8043C38.3207 13.6941 38.2214 13.6062 38.1035 13.5517ZM37.0276 38.2276H35.9518C35.3311 36.462 33.9931 34.9724 32.269 34.1172L33.7449 23.0414C33.9793 20.9034 34.7518 18.8758 35.9655 17.1517C36.3104 16.6689 36.6966 16.2 37.1104 15.7724L37.0276 38.2276ZM4.24141 39.6069H6.51728C6.82072 39.6069 7.09658 39.4 7.17934 39.1103C7.70348 37.3586 9.04141 35.8689 10.6966 35.2345C10.9862 35.1241 11.1793 34.8207 11.138 34.5034L9.63452 22.8758C9.37245 20.5172 8.51727 18.2551 7.16555 16.3379C6.54486 15.4689 5.80003 14.6138 4.79314 13.6345C4.69676 13.54 4.57443 13.4765 4.44176 13.4519C4.30909 13.4273 4.17211 13.4429 4.04831 13.4965C3.78624 13.6069 3.62072 13.8551 3.62072 14.131L3.56555 38.9172C3.56555 39.0965 3.63452 39.2758 3.77245 39.4C3.88279 39.5379 4.04831 39.6069 4.24141 39.6069ZM4.98624 15.8414C5.38624 16.2965 5.73107 16.7241 6.03452 17.1517C7.268 18.8969 8.03265 20.9296 8.25521 23.0551L9.68969 34.1724C7.99162 35.0032 6.678 36.4551 6.02072 38.2276H4.93107L4.98624 15.8414Z" fill="#50AB09"/>
</svg>
