<svg width="22" height="19" viewBox="0 0 22 19" fill="none" xmlns="http://www.w3.org/2000/svg">
<path d="M21.6116 0.162673C21.3054 -0.0427162 20.9019 -0.0394144 20.5992 0.17097C19.9396 0.629329 19.2254 0.997607 18.4698 1.26937C17.6426 0.532222 16.5958 0.0914726 15.4657 0.0140072C14.1312 -0.0774275 12.8411 0.348421 11.8322 1.21307C10.7326 2.15531 10.106 3.51773 10.1115 4.95296C6.44846 4.63087 4.13278 2.3475 2.50212 0.339489C2.30455 0.0962562 1.99075 -0.0253605 1.67789 0.0203992C1.36512 0.0660318 1.10048 0.272014 0.983042 0.561261C0.942307 0.661542 -0.0112996 3.05027 0.233107 5.93969C0.437682 8.35818 1.53205 11.5258 5.39104 13.6319C3.9973 14.2566 2.45704 14.5606 0.924303 14.5005C0.512834 14.4845 0.144419 14.7485 0.0333021 15.1389C-0.0778582 15.5292 0.0976264 15.9437 0.457361 16.1406C2.6642 17.3484 5.09928 17.992 7.49948 18.0017C7.51804 18.0018 7.53647 18.0018 7.55508 18.0018C9.87991 18.0018 12.1261 17.4118 14.0539 16.2944C15.8972 15.2259 17.4234 13.6801 18.4675 11.8241C19.5916 9.82584 20.1616 7.51694 20.1616 4.95863C20.1611 4.80861 20.1536 4.65817 20.1393 4.50832C21.0287 3.53958 21.6598 2.36777 21.9749 1.09361C22.0626 0.738966 21.9178 0.36802 21.6116 0.162673ZM18.5755 3.58644C18.3643 3.79161 18.2709 4.08708 18.3266 4.37409C18.3643 4.5683 18.3837 4.76683 18.3843 4.96138C18.3843 9.27727 16.4775 12.858 13.1526 14.7852C10.5493 16.2942 7.43618 16.6449 4.40379 15.8459C4.43511 15.8374 4.46648 15.8286 4.49768 15.8198C5.68344 15.4861 6.80209 14.9709 7.82247 14.2886C8.09442 14.1067 8.24228 13.7919 8.20687 13.4699C8.17142 13.148 7.9586 12.8716 7.65339 12.7513C4.20072 11.3907 2.30175 9.0693 2.00931 5.85135C1.90034 4.65195 2.03969 3.53496 2.2141 2.69766C2.92901 3.45576 3.82044 4.27351 4.88371 4.95842C6.72153 6.14225 8.77939 6.7425 11.0001 6.7425C11.491 6.7425 11.8888 6.35051 11.8888 5.86701V4.96143C11.8888 4.95952 11.8888 4.95757 11.8888 4.95563C11.8826 4.02655 12.2871 3.14399 12.9987 2.53422C13.6495 1.97651 14.4815 1.70178 15.3423 1.76083C16.2028 1.8198 16.9885 2.20539 17.5547 2.84653C17.7841 3.10636 18.1469 3.20961 18.4814 3.11021C18.7274 3.03724 18.9701 2.95592 19.2093 2.86651C19.0182 3.12126 18.8065 3.36204 18.5755 3.58644Z" fill="white"/>
</svg>
