<svg width="266" height="71" viewBox="0 0 266 71" fill="none" xmlns="http://www.w3.org/2000/svg">
<path fill-rule="evenodd" clip-rule="evenodd" d="M65 54.6495H70.3741V14.8679H84.1033V10.4474H65V54.6495ZM93.0442 52.3252C93.8256 50.9922 94.5505 49.4731 94.9008 47.9478C95.3993 45.8282 95.4817 42.0268 95.6066 41.5378C95.6898 41.2119 95.7314 32.3219 95.7314 14.8679L106.209 14.8875V54.8634H111.512V10.4474H90.7479V41.5378C90.7085 43.2167 90.2892 45.3668 89.9174 46.9992C89.6584 48.1418 89.6668 48.5482 89.0868 49.5493C88.66 50.2925 87.3817 51.1033 86.6525 51.5013C85.9525 51.849 85.1875 52.024 84.4148 52.013V54.8634C84.7373 55.0055 85.0728 55.1118 85.4159 55.1807C86.2427 55.4077 87.0947 55.5144 87.9485 55.4979C88.9074 55.4937 89.8497 55.232 90.6876 54.7372C91.6492 54.1514 92.4586 53.3231 93.0442 52.3252ZM125.794 30.3673C124.536 28.976 123.907 26.6146 123.905 23.283C123.905 19.9531 124.535 17.5923 125.793 16.2005C127.052 14.8087 129.061 14.1131 131.822 14.1136L136.083 14.1136V32.455H131.822C129.062 32.4541 127.052 31.7585 125.794 30.3673ZM123.905 37.7626C123.004 39.2318 122.384 40.8627 122.078 42.5688L120.861 47.9444C120.611 49.0622 120.087 50.0962 119.338 50.9485C118.416 51.7701 117.206 52.1694 115.989 52.0535V54.9046C116.368 55.0345 116.755 55.1401 117.146 55.2208C117.96 55.4423 118.8 55.5487 119.643 55.537C123.093 55.537 125.427 53.0073 126.645 47.9478L127.863 42.5722C128.39 40.3802 129.181 38.8836 130.238 38.0822C131.214 37.3092 132.413 36.8871 133.647 36.8811H136.083V54.9046H141.564V11.2694C140.041 10.81 138.483 10.4822 136.907 10.2893C135.219 10.0924 133.521 9.9973 131.823 10.0045C129.73 9.96296 127.641 10.2077 125.611 10.7322C124.056 11.1314 122.629 11.9378 121.471 13.0723C120.368 14.2294 119.571 15.6545 119.154 17.2137C118.63 19.1917 118.385 21.2359 118.424 23.2847C118.393 24.98 118.64 26.6685 119.154 28.2804C119.577 29.5932 120.216 30.8228 121.042 31.9169C121.761 32.8634 122.663 33.6489 123.69 34.2248C124.61 34.7466 125.608 35.1098 126.643 35.3001V35.5551C125.514 35.9494 124.547 36.7289 123.905 37.7626ZM168.247 10.4474V30.0229H155.277V10.4474H149.719V54.6495H155.277V34.4434H168.247V54.6495H173.806V10.4474H168.247ZM187.609 33.8119H201.043V29.3914H187.609V14.8679H202.876V10.4474H182.112V54.6495H202.874V50.2299H187.609V33.8119ZM233.542 64H236.93V50.1395H232.927V10.4474H227.382V50.1395H215.065V10.4474H209.521V54.5491H231.692C231.869 57.771 232.491 60.9523 233.542 64ZM252.378 32.455C255.139 32.455 257.148 33.1611 258.406 34.5733C259.664 35.9855 260.293 38.4412 260.294 41.9406C260.294 45.4405 259.665 47.8963 258.406 49.3079C257.147 50.7195 255.138 51.4259 252.378 51.427H248.118V32.455H252.378ZM248.253 28.5296V10.4474H242.744V54.2258C244.274 54.6874 245.84 55.0163 247.425 55.2091C249.121 55.4067 250.827 55.5021 252.534 55.4948C254.639 55.5385 256.739 55.2822 258.775 54.7333C260.337 54.3133 261.768 53.4945 262.936 52.3539C264.053 51.1753 264.854 49.7222 265.261 48.135C265.789 46.0862 266.037 43.9724 265.996 41.854C265.996 36.7781 265.047 33.1826 263.15 31.0676C261.253 28.9526 258.326 27.8952 254.369 27.8952C253.308 27.9028 252.247 27.9665 251.192 28.0862C250.204 28.1822 249.224 28.3305 248.253 28.5296Z" fill="#333333"/>
<path d="M31.6908 9.99988C17.2034 14.8548 4.98287 24.7522 0 39.4999C4.92596 54.0794 17.0317 64.0873 31.6908 68.9999C44.7261 59.0136 51.8342 50.9937 57.0634 39.4999C49.5576 34.4926 46.4047 31.9148 40.3193 24.1663C32.166 27.9288 25.0691 32.3135 18.7823 39.3398C21.0384 42.533 24.7841 45.5137 27.8126 47.9626C32.2262 44.7397 35.5921 41.5995 37.7723 38.9051C39.1394 40.5649 40.6809 41.6693 42.149 42.5925C38.3567 49.0032 34.1007 52.5229 28.8452 55.8847C20.9513 51.7323 14.606 44.5448 11.522 38.4675C17.3024 28.9977 26.3688 22.6036 36.6707 19.0402C35.0017 16.1356 32.8141 13.4306 31.6908 9.99988Z" fill="#333333"/>
<path d="M67.756 67.1439C69.28 67.1439 70.336 65.9679 70.336 64.0958C70.336 62.2118 69.28 61.0598 67.756 61.0598C66.94 61.0598 66.22 61.4799 65.8 62.0679V61.2039H64.9V69.2079H65.8V66.1239C66.268 66.7719 66.964 67.1439 67.756 67.1439ZM67.528 66.3399C66.82 66.3399 66.112 65.9079 65.8 65.4039V62.7879C66.112 62.2839 66.82 61.8638 67.528 61.8638C68.692 61.8638 69.388 62.8119 69.388 64.0958C69.388 65.3799 68.692 66.3399 67.528 66.3399Z" fill="#333333"/>
<path d="M74.2992 67.1439C76.0632 67.1439 77.1672 65.7759 77.1672 64.0958C77.1672 62.4158 76.0632 61.0598 74.2992 61.0598C72.5352 61.0598 71.4312 62.4158 71.4312 64.0958C71.4312 65.7759 72.5352 67.1439 74.2992 67.1439ZM74.2992 66.3399C73.0632 66.3399 72.3672 65.2839 72.3672 64.0958C72.3672 62.9199 73.0632 61.8638 74.2992 61.8638C75.5352 61.8638 76.2192 62.9199 76.2192 64.0958C76.2192 65.2839 75.5352 66.3399 74.2992 66.3399Z" fill="#333333"/>
<path d="M80.6864 67.1439C82.3544 67.1439 83.3384 66.4239 83.3384 65.4518C83.3384 64.4918 82.3304 64.0838 81.6584 64.0359C82.3424 63.9518 83.2184 63.4839 83.2184 62.6199C83.2184 61.6358 82.1144 61.0598 80.5544 61.0719C79.4984 61.0719 78.7184 61.4439 78.1784 61.9959L78.6464 62.5479C79.1384 62.0439 79.7744 61.8038 80.5904 61.8038C81.5504 61.8038 82.2824 62.1759 82.2824 62.7279C82.2824 63.3878 81.5264 63.6999 80.5664 63.6999H79.2704V64.4318H80.5664C81.5864 64.4318 82.3904 64.6719 82.3904 65.3919C82.3904 66.0039 81.7184 66.3999 80.6864 66.3999C79.8224 66.3999 79.0544 66.1358 78.5144 65.6199L78.0704 66.1959C78.6464 66.7719 79.5224 67.1439 80.6864 67.1439Z" fill="#333333"/>
<path d="M87.6545 67.1439C89.1785 67.1439 90.2345 65.9679 90.2345 64.0958C90.2345 62.2118 89.1785 61.0598 87.6545 61.0598C86.8385 61.0598 86.1185 61.4799 85.6985 62.0679V61.2039H84.7985V69.2079H85.6985V66.1239C86.1665 66.7719 86.8625 67.1439 87.6545 67.1439ZM87.4265 66.3399C86.7185 66.3399 86.0105 65.9079 85.6985 65.4039V62.7879C86.0105 62.2839 86.7185 61.8638 87.4265 61.8638C88.5905 61.8638 89.2865 62.8119 89.2865 64.0958C89.2865 65.3799 88.5905 66.3399 87.4265 66.3399Z" fill="#333333"/>
<path d="M94.1976 67.1439C95.9616 67.1439 97.0657 65.7759 97.0657 64.0958C97.0657 62.4158 95.9616 61.0598 94.1976 61.0598C92.4336 61.0598 91.3296 62.4158 91.3296 64.0958C91.3296 65.7759 92.4336 67.1439 94.1976 67.1439ZM94.1976 66.3399C92.9616 66.3399 92.2656 65.2839 92.2656 64.0958C92.2656 62.9199 92.9616 61.8638 94.1976 61.8638C95.4336 61.8638 96.1176 62.9199 96.1176 64.0958C96.1176 65.2839 95.4336 66.3399 94.1976 66.3399Z" fill="#333333"/>
<path d="M101.065 66.3399C99.8288 66.3399 99.1328 65.2838 99.1328 64.0838C99.1328 62.9199 99.8288 61.8638 101.065 61.8638C102.301 61.8638 102.985 62.9199 102.985 64.0838C102.985 65.2838 102.301 66.3399 101.065 66.3399ZM101.065 67.1439C102.853 67.1439 103.921 65.7519 103.921 64.0838C103.921 62.4398 102.853 61.0598 101.209 61.0598C100.177 61.0598 99.4448 61.6358 99.0248 62.2959C99.2288 61.3118 99.7448 60.5679 101.461 60.3278C102.445 60.1958 103.741 59.9439 103.741 58.9958H102.865C102.865 59.2359 102.505 59.3919 101.233 59.5838C99.2168 59.8479 98.1968 61.0118 98.1968 63.8319C98.1968 65.7519 99.2888 67.1439 101.065 67.1439Z" fill="#333333"/>
<path d="M110.559 66.9999L107.979 63.8319L110.547 61.2039H109.407L106.359 64.2879V61.2039H105.459V66.9999H106.359V65.3439L107.319 64.3959L109.407 66.9999H110.559Z" fill="#333333"/>
<path d="M116.147 66.9999V63.0159C116.147 61.6118 115.127 61.0598 113.903 61.0598C112.955 61.0598 112.211 61.3719 111.587 62.0199L112.007 62.6439C112.523 62.0919 113.087 61.8399 113.783 61.8399C114.623 61.8399 115.247 62.2839 115.247 63.0639V64.1079C114.779 63.5679 114.119 63.3159 113.327 63.3159C112.343 63.3159 111.299 63.9279 111.299 65.2239C111.299 66.4839 112.343 67.1439 113.327 67.1439C114.107 67.1439 114.767 66.8679 115.247 66.3399V66.9999H116.147ZM113.651 66.4959C112.811 66.4959 112.223 65.9679 112.223 65.2359C112.223 64.4919 112.811 63.9639 113.651 63.9639C114.287 63.9639 114.899 64.2039 115.247 64.6839V65.7759C114.899 66.2559 114.287 66.4959 113.651 66.4959Z" fill="#333333"/>
<path d="M123.001 66.9999V61.9959H124.693V61.2039H120.421V61.9959H122.101V66.9999H123.001Z" fill="#333333"/>
<path d="M130.397 66.9999V63.0159C130.397 61.6118 129.377 61.0598 128.153 61.0598C127.205 61.0598 126.461 61.3719 125.837 62.0199L126.257 62.6439C126.773 62.0919 127.337 61.8399 128.033 61.8399C128.873 61.8399 129.497 62.2839 129.497 63.0639V64.1079C129.029 63.5679 128.369 63.3159 127.577 63.3159C126.593 63.3159 125.549 63.9279 125.549 65.2239C125.549 66.4839 126.593 67.1439 127.577 67.1439C128.357 67.1439 129.017 66.8679 129.497 66.3399V66.9999H130.397ZM127.901 66.4959C127.061 66.4959 126.473 65.9679 126.473 65.2359C126.473 64.4919 127.061 63.9639 127.901 63.9639C128.537 63.9639 129.149 64.2039 129.497 64.6839V65.7759C129.149 66.2559 128.537 66.4959 127.901 66.4959Z" fill="#333333"/>
<path d="M140.119 66.9999V61.2039H135.295V66.9999H136.195V61.9959H139.219V66.9999H140.119Z" fill="#333333"/>
<path d="M142.36 60.3758C142.696 60.3758 142.972 60.1119 142.972 59.7758C142.972 59.4398 142.696 59.1638 142.36 59.1638C142.036 59.1638 141.76 59.4398 141.76 59.7758C141.76 60.1119 142.036 60.3758 142.36 60.3758ZM142.816 66.9999V61.2039H141.916V66.9999H142.816Z" fill="#333333"/>
<path d="M143.927 68.4759H144.827V66.9999H149.207V68.4759H150.107V66.2079H149.435V61.2039H145.403L145.031 64.0599C144.803 65.7759 144.467 66.1599 143.927 66.2559V68.4759ZM146.195 61.9959H148.535V66.2079H145.091C145.511 65.8719 145.787 65.2599 145.931 64.1679L146.195 61.9959Z" fill="#333333"/>
<path d="M153.294 66.9999V61.9959H154.986V61.2039H150.714V61.9959H152.394V66.9999H153.294Z" fill="#333333"/>
<path d="M159.022 67.1439C160.546 67.1439 161.602 65.9679 161.602 64.0958C161.602 62.2118 160.546 61.0598 159.022 61.0598C158.206 61.0598 157.486 61.4799 157.066 62.0679V61.2039H156.166V69.2079H157.066V66.1239C157.534 66.7719 158.23 67.1439 159.022 67.1439ZM158.794 66.3399C158.086 66.3399 157.378 65.9079 157.066 65.4039V62.7879C157.378 62.2839 158.086 61.8638 158.794 61.8638C159.958 61.8638 160.654 62.8119 160.654 64.0958C160.654 65.3799 159.958 66.3399 158.794 66.3399Z" fill="#333333"/>
<path d="M163.897 66.9999L166.957 62.4879V66.9999H167.857V61.2039H166.969L163.933 65.6319V61.2039H163.033V66.9999H163.897Z" fill="#333333"/>
<path d="M175.57 66.9999V61.2039H174.37L172.618 65.4999L170.842 61.2039H169.654V66.9999H170.554V62.4519L172.45 66.9999H172.786L174.67 62.4519V66.9999H175.57Z" fill="#333333"/>
<path d="M182.465 66.9999L179.885 63.8319L182.453 61.2039H181.313L178.265 64.2879V61.2039H177.365V66.9999H178.265V65.3439L179.225 64.3959L181.313 66.9999H182.465Z" fill="#333333"/>
<path d="M188.053 66.9999V63.0159C188.053 61.6118 187.033 61.0598 185.809 61.0598C184.861 61.0598 184.117 61.3719 183.493 62.0199L183.913 62.6439C184.429 62.0919 184.993 61.8399 185.689 61.8399C186.529 61.8399 187.153 62.2839 187.153 63.0639V64.1079C186.685 63.5679 186.025 63.3159 185.233 63.3159C184.249 63.3159 183.205 63.9279 183.205 65.2239C183.205 66.4839 184.249 67.1439 185.233 67.1439C186.013 67.1439 186.673 66.8679 187.153 66.3399V66.9999H188.053ZM185.557 66.4959C184.717 66.4959 184.129 65.9679 184.129 65.2359C184.129 64.4919 184.717 63.9639 185.557 63.9639C186.193 63.9639 186.805 64.2039 187.153 64.6839V65.7759C186.805 66.2559 186.193 66.4959 185.557 66.4959Z" fill="#333333"/>
<path d="M195.507 67.1439C196.563 67.1439 197.187 66.7119 197.631 66.1359L197.031 65.5839C196.647 66.0999 196.155 66.3399 195.555 66.3399C194.319 66.3399 193.551 65.3799 193.551 64.0958C193.551 62.8119 194.319 61.8638 195.555 61.8638C196.155 61.8638 196.647 62.0919 197.031 62.6199L197.631 62.0679C197.187 61.4918 196.563 61.0598 195.507 61.0598C193.779 61.0598 192.615 62.3798 192.615 64.0958C192.615 65.8239 193.779 67.1439 195.507 67.1439Z" fill="#333333"/>
<path d="M203.416 66.9999V63.0159C203.416 61.6118 202.396 61.0598 201.172 61.0598C200.224 61.0598 199.48 61.3719 198.856 62.0199L199.276 62.6439C199.792 62.0919 200.356 61.8399 201.052 61.8399C201.892 61.8399 202.516 62.2839 202.516 63.0639V64.1079C202.048 63.5679 201.388 63.3159 200.596 63.3159C199.612 63.3159 198.568 63.9279 198.568 65.2239C198.568 66.4839 199.612 67.1439 200.596 67.1439C201.376 67.1439 202.036 66.8679 202.516 66.3399V66.9999H203.416ZM200.92 66.4959C200.08 66.4959 199.492 65.9679 199.492 65.2359C199.492 64.4919 200.08 63.9639 200.92 63.9639C201.556 63.9639 202.168 64.2039 202.516 64.6839V65.7759C202.168 66.2559 201.556 66.4959 200.92 66.4959Z" fill="#333333"/>
<path d="M206.084 66.9999L209.144 62.4879V66.9999H210.044V61.2039H209.156L206.12 65.6319V61.2039H205.22V66.9999H206.084ZM209.732 59.4878L209.288 59.1038C208.916 59.6438 208.328 59.9678 207.632 59.9678C206.924 59.9678 206.348 59.6319 205.964 59.1038L205.52 59.4878C206.012 60.1358 206.78 60.5438 207.632 60.5438C208.496 60.5438 209.252 60.1358 209.732 59.4878Z" fill="#333333"/>
<path d="M213.797 66.9999V61.9959H215.489V61.2039H211.217V61.9959H212.897V66.9999H213.797Z" fill="#333333"/>
<path d="M217.114 60.3758C217.45 60.3758 217.726 60.1119 217.726 59.7758C217.726 59.4398 217.45 59.1638 217.114 59.1638C216.79 59.1638 216.514 59.4398 216.514 59.7758C216.514 60.1119 216.79 60.3758 217.114 60.3758ZM217.57 66.9999V61.2039H216.67V66.9999H217.57Z" fill="#333333"/>
<path d="M222.617 66.9999C223.685 66.9999 224.309 66.3639 224.309 65.4279C224.309 64.7679 223.841 64.1559 223.253 64.0119C223.745 63.8559 224.189 63.3878 224.189 62.6918C224.189 61.8159 223.577 61.2039 222.557 61.2039H219.365V66.9999H222.617ZM222.437 66.2079H220.265V64.4199H222.437C223.049 64.4199 223.373 64.8519 223.373 65.3199C223.373 65.8719 223.013 66.2079 222.437 66.2079ZM222.401 63.6279H220.265V61.9959H222.401C222.953 61.9959 223.265 62.3199 223.265 62.8239C223.265 63.2799 222.965 63.6279 222.401 63.6279Z" fill="#333333"/>
<path d="M253.856 8.99998V3.99598H255.548V3.20398H251.276V3.99598H252.956V8.99998H253.856Z" fill="#333333"/>
<path d="M262.644 8.99998V3.20398H261.444L259.692 7.49998L257.916 3.20398H256.728V8.99998H257.628V4.45198L259.524 8.99998H259.86L261.744 4.45198V8.99998H262.644Z" fill="#333333"/>
</svg>
