<svg width="266" height="71" viewBox="0 0 266 71" fill="none" xmlns="http://www.w3.org/2000/svg">
<path fill-rule="evenodd" clip-rule="evenodd" d="M65 54.6495H70.3741V14.8679H84.1033V10.4474H65V54.6495ZM93.0442 52.3252C93.8256 50.9922 94.5505 49.4731 94.9008 47.9478C95.3993 45.8282 95.4817 42.0268 95.6066 41.5378C95.6898 41.2119 95.7314 32.3219 95.7314 14.8679L106.209 14.8875V54.8634H111.512V10.4474H90.7479V41.5378C90.7085 43.2167 90.2892 45.3668 89.9174 46.9992C89.6584 48.1418 89.6668 48.5482 89.0868 49.5493C88.66 50.2925 87.3817 51.1033 86.6525 51.5013C85.9525 51.849 85.1875 52.024 84.4148 52.013V54.8634C84.7373 55.0055 85.0728 55.1118 85.4159 55.1807C86.2427 55.4077 87.0947 55.5144 87.9485 55.4979C88.9074 55.4937 89.8497 55.232 90.6876 54.7372C91.6492 54.1514 92.4586 53.3231 93.0442 52.3252ZM125.794 30.3673C124.536 28.976 123.907 26.6146 123.905 23.283C123.905 19.9531 124.535 17.5923 125.793 16.2005C127.052 14.8087 129.061 14.1131 131.822 14.1136L136.083 14.1136V32.455H131.822C129.062 32.4541 127.052 31.7585 125.794 30.3673ZM123.905 37.7626C123.004 39.2318 122.384 40.8627 122.078 42.5688L120.861 47.9444C120.611 49.0622 120.087 50.0962 119.338 50.9485C118.416 51.7701 117.206 52.1694 115.989 52.0535V54.9046C116.368 55.0345 116.755 55.1401 117.146 55.2208C117.96 55.4423 118.8 55.5487 119.643 55.537C123.093 55.537 125.427 53.0073 126.645 47.9478L127.863 42.5722C128.39 40.3802 129.181 38.8836 130.238 38.0822C131.214 37.3092 132.413 36.8871 133.647 36.8811H136.083V54.9046H141.564V11.2694C140.041 10.81 138.483 10.4822 136.907 10.2893C135.219 10.0924 133.521 9.9973 131.823 10.0045C129.73 9.96296 127.641 10.2077 125.611 10.7322C124.056 11.1314 122.629 11.9378 121.471 13.0723C120.368 14.2294 119.571 15.6545 119.154 17.2137C118.63 19.1917 118.385 21.2359 118.424 23.2847C118.393 24.98 118.64 26.6685 119.154 28.2804C119.577 29.5932 120.216 30.8228 121.042 31.9169C121.761 32.8634 122.663 33.6489 123.69 34.2248C124.61 34.7466 125.608 35.1098 126.643 35.3001V35.5551C125.514 35.9494 124.547 36.7289 123.905 37.7626ZM168.247 10.4474V30.0229H155.277V10.4474H149.719V54.6495H155.277V34.4434H168.247V54.6495H173.806V10.4474H168.247ZM187.609 33.8119H201.043V29.3914H187.609V14.8679H202.876V10.4474H182.112V54.6495H202.874V50.2299H187.609V33.8119ZM233.542 64H236.93V50.1395H232.927V10.4474H227.382V50.1395H215.065V10.4474H209.521V54.5491H231.692C231.869 57.771 232.491 60.9523 233.542 64ZM252.378 32.455C255.139 32.455 257.148 33.1611 258.406 34.5733C259.664 35.9855 260.293 38.4412 260.294 41.9406C260.294 45.4405 259.665 47.8963 258.406 49.3079C257.147 50.7195 255.138 51.4259 252.378 51.427H248.118V32.455H252.378ZM248.253 28.5296V10.4474H242.744V54.2258C244.274 54.6874 245.84 55.0163 247.425 55.2091C249.121 55.4067 250.827 55.5021 252.534 55.4948C254.639 55.5385 256.739 55.2822 258.775 54.7333C260.337 54.3133 261.768 53.4945 262.936 52.3539C264.053 51.1753 264.854 49.7222 265.261 48.135C265.789 46.0862 266.037 43.9724 265.996 41.854C265.996 36.7781 265.047 33.1826 263.15 31.0676C261.253 28.9526 258.326 27.8952 254.369 27.8952C253.308 27.9028 252.247 27.9665 251.192 28.0862C250.204 28.1822 249.224 28.3305 248.253 28.5296Z" fill="#333333"/>
<path d="M31.6908 10C17.2034 14.8549 4.98287 24.7523 0 39.5C4.92596 54.0796 17.0317 64.0874 31.6908 69C44.7261 59.0137 51.8342 50.9938 57.0634 39.5C49.5576 34.4927 46.4047 31.9149 40.3193 24.1664C32.166 27.9289 25.0691 32.3137 18.7823 39.3399C21.0384 42.5331 24.7841 45.5139 27.8126 47.9627C32.2262 44.7399 35.5921 41.5996 37.7723 38.9052C39.1394 40.565 40.6809 41.6694 42.149 42.5926C38.3567 49.0033 34.1007 52.523 28.8452 55.8848C20.9513 51.7324 14.606 44.5449 11.522 38.4676C17.3024 28.9978 26.3688 22.6037 36.6707 19.0403C35.0017 16.1357 32.8141 13.4307 31.6908 10Z" fill="#FFE30B"/>
<path d="M67.756 67.1441C69.28 67.1441 70.336 65.9681 70.336 64.0961C70.336 62.2121 69.28 61.0601 67.756 61.0601C66.94 61.0601 66.22 61.4801 65.8 62.0681V61.2041H64.9V69.2081H65.8V66.1241C66.268 66.7721 66.964 67.1441 67.756 67.1441ZM67.528 66.3401C66.82 66.3401 66.112 65.9081 65.8 65.4041V62.7881C66.112 62.2841 66.82 61.8641 67.528 61.8641C68.692 61.8641 69.388 62.8121 69.388 64.0961C69.388 65.3801 68.692 66.3401 67.528 66.3401Z" fill="#333333"/>
<path d="M74.2992 67.1441C76.0632 67.1441 77.1672 65.7761 77.1672 64.0961C77.1672 62.4161 76.0632 61.0601 74.2992 61.0601C72.5352 61.0601 71.4312 62.4161 71.4312 64.0961C71.4312 65.7761 72.5352 67.1441 74.2992 67.1441ZM74.2992 66.3401C73.0632 66.3401 72.3672 65.2841 72.3672 64.0961C72.3672 62.9201 73.0632 61.8641 74.2992 61.8641C75.5352 61.8641 76.2192 62.9201 76.2192 64.0961C76.2192 65.2841 75.5352 66.3401 74.2992 66.3401Z" fill="#333333"/>
<path d="M80.6864 67.1441C82.3544 67.1441 83.3384 66.4241 83.3384 65.4521C83.3384 64.4921 82.3304 64.0841 81.6584 64.0361C82.3424 63.9521 83.2184 63.4841 83.2184 62.6201C83.2184 61.6361 82.1144 61.0601 80.5544 61.0721C79.4984 61.0721 78.7184 61.4441 78.1784 61.9961L78.6464 62.5481C79.1384 62.0441 79.7744 61.8041 80.5904 61.8041C81.5504 61.8041 82.2824 62.1761 82.2824 62.7281C82.2824 63.3881 81.5264 63.7001 80.5664 63.7001H79.2704V64.4321H80.5664C81.5864 64.4321 82.3904 64.6721 82.3904 65.3921C82.3904 66.0041 81.7184 66.4001 80.6864 66.4001C79.8224 66.4001 79.0544 66.1361 78.5144 65.6201L78.0704 66.1961C78.6464 66.7721 79.5224 67.1441 80.6864 67.1441Z" fill="#333333"/>
<path d="M87.6545 67.1441C89.1785 67.1441 90.2345 65.9681 90.2345 64.0961C90.2345 62.2121 89.1785 61.0601 87.6545 61.0601C86.8385 61.0601 86.1185 61.4801 85.6985 62.0681V61.2041H84.7985V69.2081H85.6985V66.1241C86.1665 66.7721 86.8625 67.1441 87.6545 67.1441ZM87.4265 66.3401C86.7185 66.3401 86.0105 65.9081 85.6985 65.4041V62.7881C86.0105 62.2841 86.7185 61.8641 87.4265 61.8641C88.5905 61.8641 89.2865 62.8121 89.2865 64.0961C89.2865 65.3801 88.5905 66.3401 87.4265 66.3401Z" fill="#333333"/>
<path d="M94.1976 67.1441C95.9616 67.1441 97.0657 65.7761 97.0657 64.0961C97.0657 62.4161 95.9616 61.0601 94.1976 61.0601C92.4336 61.0601 91.3296 62.4161 91.3296 64.0961C91.3296 65.7761 92.4336 67.1441 94.1976 67.1441ZM94.1976 66.3401C92.9616 66.3401 92.2656 65.2841 92.2656 64.0961C92.2656 62.9201 92.9616 61.8641 94.1976 61.8641C95.4336 61.8641 96.1176 62.9201 96.1176 64.0961C96.1176 65.2841 95.4336 66.3401 94.1976 66.3401Z" fill="#333333"/>
<path d="M101.065 66.3401C99.8288 66.3401 99.1328 65.2841 99.1328 64.0841C99.1328 62.9201 99.8288 61.8641 101.065 61.8641C102.301 61.8641 102.985 62.9201 102.985 64.0841C102.985 65.2841 102.301 66.3401 101.065 66.3401ZM101.065 67.1441C102.853 67.1441 103.921 65.7521 103.921 64.0841C103.921 62.4401 102.853 61.0601 101.209 61.0601C100.177 61.0601 99.4448 61.6361 99.0248 62.2961C99.2288 61.3121 99.7448 60.5681 101.461 60.3281C102.445 60.1961 103.741 59.9441 103.741 58.9961H102.865C102.865 59.2361 102.505 59.3921 101.233 59.5841C99.2168 59.8481 98.1968 61.0121 98.1968 63.8321C98.1968 65.7521 99.2888 67.1441 101.065 67.1441Z" fill="#333333"/>
<path d="M110.559 67.0001L107.979 63.8321L110.547 61.2041H109.407L106.359 64.2881V61.2041H105.459V67.0001H106.359V65.3441L107.319 64.3961L109.407 67.0001H110.559Z" fill="#333333"/>
<path d="M116.147 67.0001V63.0161C116.147 61.6121 115.127 61.0601 113.903 61.0601C112.955 61.0601 112.211 61.3721 111.587 62.0201L112.007 62.6441C112.523 62.0921 113.087 61.8401 113.783 61.8401C114.623 61.8401 115.247 62.2841 115.247 63.0641V64.1081C114.779 63.5681 114.119 63.3161 113.327 63.3161C112.343 63.3161 111.299 63.9281 111.299 65.2241C111.299 66.4841 112.343 67.1441 113.327 67.1441C114.107 67.1441 114.767 66.8681 115.247 66.3401V67.0001H116.147ZM113.651 66.4961C112.811 66.4961 112.223 65.9681 112.223 65.2361C112.223 64.4921 112.811 63.9641 113.651 63.9641C114.287 63.9641 114.899 64.2041 115.247 64.6841V65.7761C114.899 66.2561 114.287 66.4961 113.651 66.4961Z" fill="#333333"/>
<path d="M123.001 67.0001V61.9961H124.693V61.2041H120.421V61.9961H122.101V67.0001H123.001Z" fill="#333333"/>
<path d="M130.397 67.0001V63.0161C130.397 61.6121 129.377 61.0601 128.153 61.0601C127.205 61.0601 126.461 61.3721 125.837 62.0201L126.257 62.6441C126.773 62.0921 127.337 61.8401 128.033 61.8401C128.873 61.8401 129.497 62.2841 129.497 63.0641V64.1081C129.029 63.5681 128.369 63.3161 127.577 63.3161C126.593 63.3161 125.549 63.9281 125.549 65.2241C125.549 66.4841 126.593 67.1441 127.577 67.1441C128.357 67.1441 129.017 66.8681 129.497 66.3401V67.0001H130.397ZM127.901 66.4961C127.061 66.4961 126.473 65.9681 126.473 65.2361C126.473 64.4921 127.061 63.9641 127.901 63.9641C128.537 63.9641 129.149 64.2041 129.497 64.6841V65.7761C129.149 66.2561 128.537 66.4961 127.901 66.4961Z" fill="#333333"/>
<path d="M140.119 67.0001V61.2041H135.295V67.0001H136.195V61.9961H139.219V67.0001H140.119Z" fill="#333333"/>
<path d="M142.36 60.3761C142.696 60.3761 142.972 60.1121 142.972 59.7761C142.972 59.4401 142.696 59.1641 142.36 59.1641C142.036 59.1641 141.76 59.4401 141.76 59.7761C141.76 60.1121 142.036 60.3761 142.36 60.3761ZM142.816 67.0001V61.2041H141.916V67.0001H142.816Z" fill="#333333"/>
<path d="M143.927 68.4761H144.827V67.0001H149.207V68.4761H150.107V66.2081H149.435V61.2041H145.403L145.031 64.0601C144.803 65.7761 144.467 66.1601 143.927 66.2561V68.4761ZM146.195 61.9961H148.535V66.2081H145.091C145.511 65.8721 145.787 65.2601 145.931 64.1681L146.195 61.9961Z" fill="#333333"/>
<path d="M153.294 67.0001V61.9961H154.986V61.2041H150.714V61.9961H152.394V67.0001H153.294Z" fill="#333333"/>
<path d="M159.022 67.1441C160.546 67.1441 161.602 65.9681 161.602 64.0961C161.602 62.2121 160.546 61.0601 159.022 61.0601C158.206 61.0601 157.486 61.4801 157.066 62.0681V61.2041H156.166V69.2081H157.066V66.1241C157.534 66.7721 158.23 67.1441 159.022 67.1441ZM158.794 66.3401C158.086 66.3401 157.378 65.9081 157.066 65.4041V62.7881C157.378 62.2841 158.086 61.8641 158.794 61.8641C159.958 61.8641 160.654 62.8121 160.654 64.0961C160.654 65.3801 159.958 66.3401 158.794 66.3401Z" fill="#333333"/>
<path d="M163.897 67.0001L166.957 62.4881V67.0001H167.857V61.2041H166.969L163.933 65.6321V61.2041H163.033V67.0001H163.897Z" fill="#333333"/>
<path d="M175.57 67.0001V61.2041H174.37L172.618 65.5001L170.842 61.2041H169.654V67.0001H170.554V62.4521L172.45 67.0001H172.786L174.67 62.4521V67.0001H175.57Z" fill="#333333"/>
<path d="M182.465 67.0001L179.885 63.8321L182.453 61.2041H181.313L178.265 64.2881V61.2041H177.365V67.0001H178.265V65.3441L179.225 64.3961L181.313 67.0001H182.465Z" fill="#333333"/>
<path d="M188.053 67.0001V63.0161C188.053 61.6121 187.033 61.0601 185.809 61.0601C184.861 61.0601 184.117 61.3721 183.493 62.0201L183.913 62.6441C184.429 62.0921 184.993 61.8401 185.689 61.8401C186.529 61.8401 187.153 62.2841 187.153 63.0641V64.1081C186.685 63.5681 186.025 63.3161 185.233 63.3161C184.249 63.3161 183.205 63.9281 183.205 65.2241C183.205 66.4841 184.249 67.1441 185.233 67.1441C186.013 67.1441 186.673 66.8681 187.153 66.3401V67.0001H188.053ZM185.557 66.4961C184.717 66.4961 184.129 65.9681 184.129 65.2361C184.129 64.4921 184.717 63.9641 185.557 63.9641C186.193 63.9641 186.805 64.2041 187.153 64.6841V65.7761C186.805 66.2561 186.193 66.4961 185.557 66.4961Z" fill="#333333"/>
<path d="M195.507 67.1441C196.563 67.1441 197.187 66.7121 197.631 66.1361L197.031 65.5841C196.647 66.1001 196.155 66.3401 195.555 66.3401C194.319 66.3401 193.551 65.3801 193.551 64.0961C193.551 62.8121 194.319 61.8641 195.555 61.8641C196.155 61.8641 196.647 62.0921 197.031 62.6201L197.631 62.0681C197.187 61.4921 196.563 61.0601 195.507 61.0601C193.779 61.0601 192.615 62.3801 192.615 64.0961C192.615 65.8241 193.779 67.1441 195.507 67.1441Z" fill="#333333"/>
<path d="M203.416 67.0001V63.0161C203.416 61.6121 202.396 61.0601 201.172 61.0601C200.224 61.0601 199.48 61.3721 198.856 62.0201L199.276 62.6441C199.792 62.0921 200.356 61.8401 201.052 61.8401C201.892 61.8401 202.516 62.2841 202.516 63.0641V64.1081C202.048 63.5681 201.388 63.3161 200.596 63.3161C199.612 63.3161 198.568 63.9281 198.568 65.2241C198.568 66.4841 199.612 67.1441 200.596 67.1441C201.376 67.1441 202.036 66.8681 202.516 66.3401V67.0001H203.416ZM200.92 66.4961C200.08 66.4961 199.492 65.9681 199.492 65.2361C199.492 64.4921 200.08 63.9641 200.92 63.9641C201.556 63.9641 202.168 64.2041 202.516 64.6841V65.7761C202.168 66.2561 201.556 66.4961 200.92 66.4961Z" fill="#333333"/>
<path d="M206.084 67.0001L209.144 62.4881V67.0001H210.044V61.2041H209.156L206.12 65.6321V61.2041H205.22V67.0001H206.084ZM209.732 59.4881L209.288 59.1041C208.916 59.6441 208.328 59.9681 207.632 59.9681C206.924 59.9681 206.348 59.6321 205.964 59.1041L205.52 59.4881C206.012 60.1361 206.78 60.5441 207.632 60.5441C208.496 60.5441 209.252 60.1361 209.732 59.4881Z" fill="#333333"/>
<path d="M213.797 67.0001V61.9961H215.489V61.2041H211.217V61.9961H212.897V67.0001H213.797Z" fill="#333333"/>
<path d="M217.114 60.3761C217.45 60.3761 217.726 60.1121 217.726 59.7761C217.726 59.4401 217.45 59.1641 217.114 59.1641C216.79 59.1641 216.514 59.4401 216.514 59.7761C216.514 60.1121 216.79 60.3761 217.114 60.3761ZM217.57 67.0001V61.2041H216.67V67.0001H217.57Z" fill="#333333"/>
<path d="M222.617 67.0001C223.685 67.0001 224.309 66.3641 224.309 65.4281C224.309 64.7681 223.841 64.1561 223.253 64.0121C223.745 63.8561 224.189 63.3881 224.189 62.6921C224.189 61.8161 223.577 61.2041 222.557 61.2041H219.365V67.0001H222.617ZM222.437 66.2081H220.265V64.4201H222.437C223.049 64.4201 223.373 64.8521 223.373 65.3201C223.373 65.8721 223.013 66.2081 222.437 66.2081ZM222.401 63.6281H220.265V61.9961H222.401C222.953 61.9961 223.265 62.3201 223.265 62.8241C223.265 63.2801 222.965 63.6281 222.401 63.6281Z" fill="#333333"/>
<path d="M253.856 9.0001V3.9961H255.548V3.2041H251.276V3.9961H252.956V9.0001H253.856Z" fill="#333333"/>
<path d="M262.644 9.0001V3.2041H261.444L259.692 7.5001L257.916 3.2041H256.728V9.0001H257.628V4.4521L259.524 9.0001H259.86L261.744 4.4521V9.0001H262.644Z" fill="#333333"/>
</svg>
